<svg width="213" height="48" viewBox="0 0 213 48" fill="none" xmlns="http://www.w3.org/2000/svg">
<g clip-path="url(#clip0_9_371)">
<path fill-rule="evenodd" clip-rule="evenodd" d="M24 48C37.2548 48 48 37.2548 48 24C48 10.7452 37.2548 0 24 0C10.7452 0 0 10.7452 0 24C0 37.2548 10.7452 48 24 48ZM36.4947 19.4553L37.244 21.1978C38.852 21.7664 40 23.2025 40 24.8979V27.8743C40 28.8745 39.5893 29.7767 38.9333 30.4743V33.8272C38.9333 34.9229 37.978 35.8114 36.8 35.8114H34.6667C33.4887 35.8114 32.5333 34.9229 32.5333 33.8272V31.8429H15.4667V33.8272C15.4667 34.9229 14.5113 35.8114 13.3333 35.8114H11.2C10.022 35.8114 9.06667 34.9229 9.06667 33.8272V30.4743C8.41067 29.7761 8 28.8739 8 27.8743V24.8979C8 23.2025 9.148 21.7664 10.756 21.1978L11.5053 19.4553L12.834 16.3654C13.9747 13.7133 16.696 12 19.7667 12H28.2333C31.3047 12 34.0253 13.7133 35.166 16.3654L36.4947 19.4553ZM19.7667 15.9686C18.458 15.9686 17.2813 16.7096 16.7953 17.8394L15.4667 20.9293H32.5333L31.2047 17.8394C30.7187 16.7096 29.542 15.9686 28.2333 15.9686H19.7667ZM11.2 25.8838C11.2 27.0707 12.0533 27.8619 13.3333 27.8619C13.4886 27.8619 13.6533 27.8648 13.8229 27.8678C15.0509 27.8895 16.5333 27.9157 16.5333 26.8729C16.5333 25.686 14.6133 23.9057 13.3333 23.9057C12.0533 23.9057 11.2 24.697 11.2 25.8838ZM34.1771 27.8678C34.3467 27.8648 34.5114 27.8619 34.6667 27.8619C35.9467 27.8619 36.8 27.0707 36.8 25.8838C36.8 24.697 35.9467 23.9057 34.6667 23.9057C33.3867 23.9057 31.4667 25.686 31.4667 26.8729C31.4667 27.9157 32.9491 27.8895 34.1771 27.8678Z" fill="#EAECEE"/>
</g>
<path d="M57.848 28.5V10.62H64.352C65.552 10.62 66.608 10.844 67.52 11.292C68.432 11.724 69.144 12.364 69.656 13.212C70.184 14.044 70.448 15.044 70.448 16.212C70.448 17.444 70.136 18.5 69.512 19.38C68.904 20.26 68.08 20.9 67.04 21.3L71.168 28.5H67.952L63.56 20.7L65.408 21.78H60.68V28.5H57.848ZM60.68 19.26H64.4C65.056 19.26 65.624 19.132 66.104 18.876C66.584 18.62 66.952 18.268 67.208 17.82C67.48 17.356 67.616 16.812 67.616 16.188C67.616 15.564 67.48 15.028 67.208 14.58C66.952 14.116 66.584 13.764 66.104 13.524C65.624 13.268 65.056 13.14 64.4 13.14H60.68V19.26ZM77.4566 28.788C76.1606 28.788 75.0086 28.492 74.0006 27.9C73.0086 27.292 72.2326 26.476 71.6726 25.452C71.1126 24.412 70.8326 23.252 70.8326 21.972C70.8326 20.66 71.1126 19.5 71.6726 18.492C72.2486 17.484 73.0166 16.692 73.9766 16.116C74.9366 15.524 76.0246 15.228 77.2406 15.228C78.2166 15.228 79.0886 15.396 79.8566 15.732C80.6246 16.068 81.2726 16.532 81.8006 17.124C82.3286 17.7 82.7286 18.364 83.0006 19.116C83.2886 19.868 83.4326 20.668 83.4326 21.516C83.4326 21.724 83.4246 21.94 83.4086 22.164C83.3926 22.388 83.3606 22.596 83.3126 22.788H72.9686V20.628H81.7766L80.4806 21.612C80.6406 20.828 80.5846 20.132 80.3126 19.524C80.0566 18.9 79.6566 18.412 79.1126 18.06C78.5846 17.692 77.9606 17.508 77.2406 17.508C76.5206 17.508 75.8806 17.692 75.3206 18.06C74.7606 18.412 74.3286 18.924 74.0246 19.596C73.7206 20.252 73.6006 21.052 73.6646 21.996C73.5846 22.876 73.7046 23.644 74.0246 24.3C74.3606 24.956 74.8246 25.468 75.4166 25.836C76.0246 26.204 76.7126 26.388 77.4806 26.388C78.2646 26.388 78.9286 26.212 79.4726 25.86C80.0326 25.508 80.4726 25.052 80.7926 24.492L83.0006 25.572C82.7446 26.18 82.3446 26.732 81.8006 27.228C81.2726 27.708 80.6326 28.092 79.8806 28.38C79.1446 28.652 78.3366 28.788 77.4566 28.788ZM84.8793 28.5V15.516H87.4713V18.06L87.1593 17.724C87.4793 16.908 87.9913 16.292 88.6953 15.876C89.3993 15.444 90.2153 15.228 91.1433 15.228C92.1033 15.228 92.9513 15.436 93.6873 15.852C94.4233 16.268 94.9993 16.844 95.4153 17.58C95.8313 18.316 96.0393 19.164 96.0393 20.124V28.5H93.3513V20.844C93.3513 20.188 93.2313 19.636 92.9913 19.188C92.7513 18.724 92.4073 18.372 91.9593 18.132C91.5273 17.876 91.0313 17.748 90.4713 17.748C89.9113 17.748 89.4073 17.876 88.9593 18.132C88.5273 18.372 88.1913 18.724 87.9513 19.188C87.7113 19.652 87.5913 20.204 87.5913 20.844V28.5H84.8793ZM103.358 28.644C101.998 28.644 100.942 28.26 100.19 27.492C99.4378 26.724 99.0618 25.644 99.0618 24.252V17.964H96.7818V15.516H97.1418C97.7498 15.516 98.2218 15.34 98.5578 14.988C98.8938 14.636 99.0618 14.156 99.0618 13.548V12.54H101.774V15.516H104.726V17.964H101.774V24.132C101.774 24.58 101.846 24.964 101.99 25.284C102.134 25.588 102.366 25.828 102.686 26.004C103.006 26.164 103.422 26.244 103.934 26.244C104.062 26.244 104.206 26.236 104.366 26.22C104.526 26.204 104.678 26.188 104.822 26.172V28.5C104.598 28.532 104.35 28.564 104.078 28.596C103.806 28.628 103.566 28.644 103.358 28.644ZM104.948 28.5L111.236 10.62H114.74L121.028 28.5H118.004L116.636 24.492H109.364L107.972 28.5H104.948ZM110.18 21.972H115.772L112.604 12.612H113.396L110.18 21.972ZM129.551 28.788C128.287 28.788 127.111 28.556 126.023 28.092C124.951 27.628 124.015 26.988 123.215 26.172C122.431 25.34 121.815 24.364 121.367 23.244C120.919 22.124 120.695 20.892 120.695 19.548C120.695 18.22 120.911 16.996 121.343 15.876C121.791 14.74 122.415 13.764 123.215 12.948C124.015 12.116 124.951 11.476 126.023 11.028C127.095 10.564 128.271 10.332 129.551 10.332C130.815 10.332 131.943 10.548 132.935 10.98C133.943 11.412 134.791 11.98 135.479 12.684C136.167 13.372 136.663 14.124 136.967 14.94L134.423 16.14C134.039 15.18 133.423 14.404 132.575 13.812C131.743 13.204 130.735 12.9 129.551 12.9C128.367 12.9 127.319 13.18 126.407 13.74C125.495 14.3 124.783 15.076 124.271 16.068C123.775 17.06 123.527 18.22 123.527 19.548C123.527 20.876 123.775 22.044 124.271 23.052C124.783 24.044 125.495 24.82 126.407 25.38C127.319 25.924 128.367 26.196 129.551 26.196C130.735 26.196 131.743 25.9 132.575 25.308C133.423 24.716 134.039 23.94 134.423 22.98L136.967 24.18C136.663 24.98 136.167 25.732 135.479 26.436C134.791 27.14 133.943 27.708 132.935 28.14C131.943 28.572 130.815 28.788 129.551 28.788ZM142.069 28.788C141.189 28.788 140.413 28.636 139.741 28.332C139.085 28.012 138.573 27.58 138.205 27.036C137.837 26.476 137.653 25.82 137.653 25.068C137.653 24.364 137.805 23.732 138.109 23.172C138.429 22.612 138.917 22.14 139.573 21.756C140.229 21.372 141.053 21.1 142.045 20.94L146.557 20.196V22.332L142.573 23.028C141.853 23.156 141.325 23.388 140.989 23.724C140.653 24.044 140.485 24.46 140.485 24.972C140.485 25.468 140.669 25.876 141.037 26.196C141.421 26.5 141.909 26.652 142.501 26.652C143.237 26.652 143.877 26.492 144.421 26.172C144.981 25.852 145.413 25.428 145.717 24.9C146.021 24.356 146.173 23.756 146.173 23.1V19.764C146.173 19.124 145.933 18.604 145.453 18.204C144.989 17.788 144.365 17.58 143.581 17.58C142.861 17.58 142.229 17.772 141.685 18.156C141.157 18.524 140.765 19.004 140.509 19.596L138.253 18.468C138.493 17.828 138.885 17.268 139.429 16.788C139.973 16.292 140.605 15.908 141.325 15.636C142.061 15.364 142.837 15.228 143.653 15.228C144.677 15.228 145.581 15.42 146.365 15.804C147.165 16.188 147.781 16.724 148.213 17.412C148.661 18.084 148.885 18.868 148.885 19.764V28.5H146.293V26.148L146.845 26.22C146.541 26.748 146.149 27.204 145.669 27.588C145.205 27.972 144.669 28.268 144.061 28.476C143.469 28.684 142.805 28.788 142.069 28.788ZM150.856 28.5V15.516H153.448V18.132L153.208 17.748C153.496 16.9 153.96 16.292 154.6 15.924C155.24 15.54 156.008 15.348 156.904 15.348H157.696V17.82H156.568C155.672 17.82 154.944 18.1 154.384 18.66C153.84 19.204 153.568 19.988 153.568 21.012V28.5H150.856ZM158.59 28.5V25.38H161.35V28.5H158.59ZM170.679 28.788C169.383 28.788 168.231 28.492 167.223 27.9C166.231 27.292 165.439 26.476 164.847 25.452C164.271 24.428 163.983 23.268 163.983 21.972C163.983 20.692 164.271 19.54 164.847 18.516C165.423 17.492 166.215 16.692 167.223 16.116C168.231 15.524 169.383 15.228 170.679 15.228C171.559 15.228 172.383 15.388 173.151 15.708C173.919 16.012 174.583 16.436 175.143 16.98C175.719 17.524 176.143 18.156 176.415 18.876L174.039 19.98C173.767 19.308 173.327 18.772 172.719 18.372C172.127 17.956 171.447 17.748 170.679 17.748C169.943 17.748 169.279 17.932 168.687 18.3C168.111 18.652 167.655 19.156 167.319 19.812C166.983 20.452 166.815 21.18 166.815 21.996C166.815 22.812 166.983 23.548 167.319 24.204C167.655 24.844 168.111 25.348 168.687 25.716C169.279 26.084 169.943 26.268 170.679 26.268C171.463 26.268 172.143 26.068 172.719 25.668C173.311 25.252 173.751 24.7 174.039 24.012L176.415 25.14C176.159 25.828 175.743 26.452 175.167 27.012C174.607 27.556 173.943 27.988 173.175 28.308C172.407 28.628 171.575 28.788 170.679 28.788ZM184.129 28.788C182.881 28.788 181.737 28.492 180.697 27.9C179.673 27.308 178.857 26.5 178.249 25.476C177.641 24.452 177.337 23.292 177.337 21.996C177.337 20.684 177.641 19.524 178.249 18.516C178.857 17.492 179.673 16.692 180.697 16.116C181.721 15.524 182.865 15.228 184.129 15.228C185.409 15.228 186.553 15.524 187.561 16.116C188.585 16.692 189.393 17.492 189.985 18.516C190.593 19.524 190.897 20.684 190.897 21.996C190.897 23.308 190.593 24.476 189.985 25.5C189.377 26.524 188.561 27.332 187.537 27.924C186.513 28.5 185.377 28.788 184.129 28.788ZM184.129 26.268C184.897 26.268 185.577 26.084 186.169 25.716C186.761 25.348 187.225 24.844 187.561 24.204C187.913 23.548 188.089 22.812 188.089 21.996C188.089 21.18 187.913 20.452 187.561 19.812C187.225 19.172 186.761 18.668 186.169 18.3C185.577 17.932 184.897 17.748 184.129 17.748C183.377 17.748 182.697 17.932 182.089 18.3C181.497 18.668 181.025 19.172 180.673 19.812C180.337 20.452 180.169 21.18 180.169 21.996C180.169 22.812 180.337 23.548 180.673 24.204C181.025 24.844 181.497 25.348 182.089 25.716C182.697 26.084 183.377 26.268 184.129 26.268ZM192.345 28.5V15.516H194.937V18.324L194.601 17.892C194.873 17.012 195.369 16.348 196.089 15.9C196.809 15.452 197.633 15.228 198.561 15.228C199.601 15.228 200.521 15.508 201.321 16.068C202.137 16.612 202.681 17.34 202.953 18.252L202.185 18.324C202.569 17.284 203.153 16.508 203.937 15.996C204.737 15.484 205.649 15.228 206.673 15.228C207.569 15.228 208.377 15.436 209.097 15.852C209.833 16.268 210.417 16.844 210.849 17.58C211.281 18.316 211.497 19.156 211.497 20.1V28.5H208.785V20.844C208.785 20.188 208.665 19.636 208.425 19.188C208.201 18.724 207.881 18.372 207.465 18.132C207.065 17.876 206.593 17.748 206.049 17.748C205.505 17.748 205.025 17.876 204.609 18.132C204.193 18.372 203.865 18.724 203.625 19.188C203.385 19.652 203.265 20.204 203.265 20.844V28.5H200.577V20.844C200.577 20.188 200.457 19.636 200.217 19.188C199.993 18.724 199.673 18.372 199.257 18.132C198.857 17.876 198.377 17.748 197.817 17.748C197.273 17.748 196.793 17.876 196.377 18.132C195.961 18.372 195.633 18.724 195.393 19.188C195.169 19.652 195.057 20.204 195.057 20.844V28.5H192.345Z" fill="#EAECEE"/>
<path d="M58.604 41.5V33.46H56.132V32.56H62.012V33.46H59.564V41.5H58.604ZM61.7498 41.5V35.068H62.6498V36.124L62.5298 35.968C62.6818 35.664 62.9098 35.424 63.2138 35.248C63.5258 35.072 63.9018 34.984 64.3418 34.984H64.7498V35.884H64.1858C63.7218 35.884 63.3498 36.028 63.0698 36.316C62.7898 36.604 62.6498 37.012 62.6498 37.54V41.5H61.7498ZM67.0645 41.644C66.6565 41.644 66.2925 41.568 65.9725 41.416C65.6525 41.256 65.4005 41.04 65.2165 40.768C65.0325 40.496 64.9405 40.184 64.9405 39.832C64.9405 39.496 65.0125 39.192 65.1565 38.92C65.3005 38.64 65.5245 38.404 65.8285 38.212C66.1325 38.02 66.5205 37.884 66.9925 37.804L69.5125 37.384V38.2L67.2085 38.584C66.7445 38.664 66.4085 38.812 66.2005 39.028C66.0005 39.244 65.9005 39.5 65.9005 39.796C65.9005 40.084 66.0125 40.328 66.2365 40.528C66.4685 40.728 66.7645 40.828 67.1245 40.828C67.5645 40.828 67.9485 40.736 68.2765 40.552C68.6045 40.36 68.8605 40.104 69.0445 39.784C69.2285 39.464 69.3205 39.108 69.3205 38.716V37.084C69.3205 36.7 69.1805 36.388 68.9005 36.148C68.6205 35.908 68.2565 35.788 67.8085 35.788C67.4165 35.788 67.0725 35.888 66.7765 36.088C66.4805 36.28 66.2605 36.532 66.1165 36.844L65.3005 36.4C65.4205 36.128 65.6085 35.88 65.8645 35.656C66.1285 35.432 66.4285 35.256 66.7645 35.128C67.1005 34.992 67.4485 34.924 67.8085 34.924C68.2805 34.924 68.6965 35.016 69.0565 35.2C69.4245 35.384 69.7085 35.64 69.9085 35.968C70.1165 36.288 70.2205 36.66 70.2205 37.084V41.5H69.3205V40.216L69.4525 40.348C69.3405 40.588 69.1645 40.808 68.9245 41.008C68.6925 41.2 68.4165 41.356 68.0965 41.476C67.7845 41.588 67.4405 41.644 67.0645 41.644ZM73.0705 41.5L70.5625 35.068H71.5705L73.6825 40.708H73.3585L75.4825 35.068H76.5025L73.9705 41.5H73.0705ZM79.7645 41.644C79.1645 41.644 78.6205 41.5 78.1325 41.212C77.6525 40.916 77.2725 40.512 76.9925 40C76.7125 39.488 76.5725 38.908 76.5725 38.26C76.5725 37.612 76.7085 37.04 76.9805 36.544C77.2525 36.04 77.6205 35.644 78.0845 35.356C78.5565 35.068 79.0845 34.924 79.6685 34.924C80.1325 34.924 80.5445 35.012 80.9045 35.188C81.2725 35.356 81.5845 35.588 81.8405 35.884C82.0965 36.172 82.2925 36.5 82.4285 36.868C82.5645 37.228 82.6325 37.6 82.6325 37.984C82.6325 38.064 82.6285 38.156 82.6205 38.26C82.6125 38.356 82.6005 38.456 82.5845 38.56H77.1485V37.72H82.0685L81.6365 38.08C81.7085 37.64 81.6565 37.248 81.4805 36.904C81.3125 36.552 81.0685 36.276 80.7485 36.076C80.4285 35.868 80.0685 35.764 79.6685 35.764C79.2685 35.764 78.8965 35.868 78.5525 36.076C78.2165 36.284 77.9525 36.576 77.7605 36.952C77.5685 37.32 77.4925 37.76 77.5325 38.272C77.4925 38.784 77.5725 39.232 77.7725 39.616C77.9805 39.992 78.2605 40.284 78.6125 40.492C78.9725 40.7 79.3565 40.804 79.7645 40.804C80.2365 40.804 80.6325 40.692 80.9525 40.468C81.2725 40.244 81.5325 39.964 81.7325 39.628L82.5005 40.036C82.3725 40.324 82.1765 40.592 81.9125 40.84C81.6485 41.08 81.3325 41.276 80.9645 41.428C80.6045 41.572 80.2045 41.644 79.7645 41.644ZM83.6193 41.5V32.416H84.5193V41.5H83.6193ZM90.1286 41.644C89.5286 41.644 88.9846 41.5 88.4966 41.212C88.0166 40.916 87.6366 40.512 87.3566 40C87.0766 39.488 86.9366 38.908 86.9366 38.26C86.9366 37.612 87.0726 37.04 87.3446 36.544C87.6166 36.04 87.9846 35.644 88.4486 35.356C88.9206 35.068 89.4486 34.924 90.0326 34.924C90.4966 34.924 90.9086 35.012 91.2686 35.188C91.6366 35.356 91.9486 35.588 92.2046 35.884C92.4606 36.172 92.6566 36.5 92.7926 36.868C92.9286 37.228 92.9966 37.6 92.9966 37.984C92.9966 38.064 92.9926 38.156 92.9846 38.26C92.9766 38.356 92.9646 38.456 92.9486 38.56H87.5126V37.72H92.4326L92.0006 38.08C92.0726 37.64 92.0206 37.248 91.8446 36.904C91.6766 36.552 91.4326 36.276 91.1126 36.076C90.7926 35.868 90.4326 35.764 90.0326 35.764C89.6326 35.764 89.2606 35.868 88.9166 36.076C88.5806 36.284 88.3166 36.576 88.1246 36.952C87.9326 37.32 87.8566 37.76 87.8966 38.272C87.8566 38.784 87.9366 39.232 88.1366 39.616C88.3446 39.992 88.6246 40.284 88.9766 40.492C89.3366 40.7 89.7206 40.804 90.1286 40.804C90.6006 40.804 90.9966 40.692 91.3166 40.468C91.6366 40.244 91.8966 39.964 92.0966 39.628L92.8646 40.036C92.7366 40.324 92.5406 40.592 92.2766 40.84C92.0126 41.08 91.6966 41.276 91.3286 41.428C90.9686 41.572 90.5686 41.644 90.1286 41.644ZM95.7262 41.644C95.3182 41.644 94.9542 41.568 94.6342 41.416C94.3142 41.256 94.0622 41.04 93.8782 40.768C93.6942 40.496 93.6022 40.184 93.6022 39.832C93.6022 39.496 93.6742 39.192 93.8182 38.92C93.9622 38.64 94.1862 38.404 94.4902 38.212C94.7942 38.02 95.1822 37.884 95.6542 37.804L98.1742 37.384V38.2L95.8702 38.584C95.4062 38.664 95.0702 38.812 94.8622 39.028C94.6622 39.244 94.5622 39.5 94.5622 39.796C94.5622 40.084 94.6742 40.328 94.8982 40.528C95.1302 40.728 95.4262 40.828 95.7862 40.828C96.2262 40.828 96.6102 40.736 96.9382 40.552C97.2662 40.36 97.5222 40.104 97.7062 39.784C97.8902 39.464 97.9822 39.108 97.9822 38.716V37.084C97.9822 36.7 97.8422 36.388 97.5622 36.148C97.2822 35.908 96.9182 35.788 96.4702 35.788C96.0782 35.788 95.7342 35.888 95.4382 36.088C95.1422 36.28 94.9222 36.532 94.7782 36.844L93.9622 36.4C94.0822 36.128 94.2702 35.88 94.5262 35.656C94.7902 35.432 95.0902 35.256 95.4262 35.128C95.7622 34.992 96.1102 34.924 96.4702 34.924C96.9422 34.924 97.3582 35.016 97.7182 35.2C98.0862 35.384 98.3702 35.64 98.5702 35.968C98.7782 36.288 98.8822 36.66 98.8822 37.084V41.5H97.9822V40.216L98.1142 40.348C98.0022 40.588 97.8262 40.808 97.5862 41.008C97.3542 41.2 97.0782 41.356 96.7582 41.476C96.4462 41.588 96.1022 41.644 95.7262 41.644ZM102.365 41.644C101.749 41.644 101.209 41.488 100.745 41.176C100.281 40.864 99.9454 40.44 99.7374 39.904L100.493 39.544C100.677 39.936 100.933 40.248 101.261 40.48C101.597 40.712 101.965 40.828 102.365 40.828C102.749 40.828 103.073 40.736 103.337 40.552C103.601 40.36 103.733 40.112 103.733 39.808C103.733 39.584 103.669 39.408 103.541 39.28C103.413 39.144 103.265 39.04 103.097 38.968C102.929 38.896 102.781 38.844 102.653 38.812L101.729 38.548C101.137 38.38 100.709 38.144 100.445 37.84C100.181 37.536 100.049 37.184 100.049 36.784C100.049 36.408 100.145 36.08 100.337 35.8C100.529 35.52 100.789 35.304 101.117 35.152C101.445 35 101.809 34.924 102.209 34.924C102.753 34.924 103.245 35.068 103.685 35.356C104.133 35.636 104.449 36.028 104.633 36.532L103.865 36.892C103.705 36.532 103.473 36.252 103.169 36.052C102.873 35.844 102.541 35.74 102.173 35.74C101.813 35.74 101.525 35.832 101.309 36.016C101.093 36.2 100.985 36.432 100.985 36.712C100.985 36.928 101.041 37.1 101.153 37.228C101.265 37.356 101.393 37.452 101.537 37.516C101.689 37.58 101.821 37.628 101.933 37.66L103.001 37.972C103.521 38.124 103.925 38.36 104.213 38.68C104.509 39 104.657 39.376 104.657 39.808C104.657 40.16 104.557 40.476 104.357 40.756C104.165 41.036 103.897 41.256 103.553 41.416C103.209 41.568 102.813 41.644 102.365 41.644ZM105.639 41.5V35.068H106.539V41.5H105.639ZM105.639 33.88V32.56H106.539V33.88H105.639ZM107.781 41.5V32.416H108.681V41.5H107.781ZM110.055 44.14C109.927 44.14 109.795 44.128 109.659 44.104C109.531 44.088 109.403 44.056 109.275 44.008V43.168C109.355 43.176 109.455 43.188 109.575 43.204C109.703 43.228 109.831 43.24 109.959 43.24C110.351 43.24 110.651 43.156 110.859 42.988C111.067 42.828 111.271 42.516 111.471 42.052L111.879 41.092L111.855 41.884L109.131 35.068H110.103L112.335 40.696H112.083L114.303 35.068H115.299L112.359 42.316C112.231 42.628 112.067 42.924 111.867 43.204C111.675 43.484 111.431 43.708 111.135 43.876C110.839 44.052 110.479 44.14 110.055 44.14ZM115.588 41.5V40.18H116.548V41.5H115.588Z" fill="#EAECEE"/>
<defs>
<clipPath id="clip0_9_371">
<rect width="48" height="48" fill="white"/>
</clipPath>
</defs>
</svg>
